# xmcd
#
# Track frame offsets:
#	150
#	22914
#	40914
#	57888
#	75890
#	92594
#	118474
#	140256
#	170334
#	187155
#	201289
#	219086
#	235784
#	253043
#	268488
#	285096
#	303651
#	319604
#	338577
#	354673
#
# Disc length: 4799 seconds
#
# Revision: 0
# Processed by: cddbd v1.5.2PL0 Copyright (c) Steve Scherf et al.
# Submitted via: EasyCDDAExtractor 16.0.9.1
#
DISCID=1b12bd14
DTITLE=Various Artist - Viva Club Hits Vol.9
DYEAR=2001
DGENRE=Dance, Club
TTITLE0=R.B.A. - No Alternative
TTITLE1=Kaylab - Here We Go
TTITLE2=Jason Newman - The After World
TTITLE3=Mauro Picotto - Iguana
TTITLE4=Xeon Procet - In My Eyes
TTITLE5=Sublime - Catch Me
TTITLE6=Fergie and Bk. - House Of Pain
TTITLE7=Das Saint - Das Megamix
TTITLE8=DJ Balloon - Technorocker
TTITLE9=Cosmic Gate - Metal Atmosphere
TTITLE10=Gigi D'agostino - Boci and Aborocci
TTITLE11=Spirit Bass - Kick That Bass
TTITLE12=Admiral Warp - Dance To The House
TTITLE13=DJ Galaga vs. Da Cloot - What Do You Say To The DJ
TTITLE14=DJ Mental Theo vs. DJ C7 - Air
TTITLE15=DJ RPM - Pussy Pussy
TTITLE16=Molella - Genic
TTITLE17=Blank and Jones - Electric Circus
TTITLE18=DJ Bonebreaker - Husten
TTITLE19=Unknown Artist - Title 20
EXTD=
EXTT0=
EXTT1=
EXTT2=
EXTT3=
EXTT4=
EXTT5=
EXTT6=
EXTT7=
EXTT8=
EXTT9=
EXTT10=
EXTT11=
EXTT12=
EXTT13=
EXTT14=
EXTT15=
EXTT16=
EXTT17=
EXTT18=
EXTT19=
PLAYORDER=
